<svg xmlns="http://www.w3.org/2000/svg" width="397.203" height="230.564" viewBox="0 0 397.203 230.564">
  <g id="그룹_1" data-name="그룹 1" transform="translate(-671.444 -156.5)">
    <path id="패스_1" data-name="패스 1" d="M778.847,200.963H725.391a2.353,2.353,0,0,0-2.354,2.354V327.375H781.2V203.317A2.354,2.354,0,0,0,778.847,200.963Zm-29.153,59.221a1.778,1.778,0,0,1-1.778,1.777H729.137a1.778,1.778,0,0,1-1.778-1.777V207.111a1.778,1.778,0,0,1,1.778-1.778h18.779a1.778,1.778,0,0,1,1.778,1.778Zm26.9,0a1.777,1.777,0,0,1-1.777,1.777H756.034a1.778,1.778,0,0,1-1.778-1.777V207.111a1.778,1.778,0,0,1,1.778-1.778h18.779a1.777,1.777,0,0,1,1.777,1.778Z" transform="translate(15.312 13.196)" fill="#fff"/>
    <path id="패스_2" data-name="패스 2" d="M937.143,200.963H883.687a2.353,2.353,0,0,0-2.354,2.354V327.375H939.5V203.317A2.353,2.353,0,0,0,937.143,200.963ZM907.99,260.184a1.778,1.778,0,0,1-1.778,1.777H887.433a1.777,1.777,0,0,1-1.777-1.777V207.111a1.777,1.777,0,0,1,1.777-1.778h18.779a1.778,1.778,0,0,1,1.778,1.778Zm26.9,0a1.778,1.778,0,0,1-1.778,1.777H914.33a1.778,1.778,0,0,1-1.778-1.777V207.111a1.778,1.778,0,0,1,1.778-1.778h18.779a1.778,1.778,0,0,1,1.778,1.778Z" transform="translate(62.293 13.196)" fill="#fff"/>
    <path id="패스_3" data-name="패스 3" d="M685.625,301.444a25.4,25.4,0,0,0,49.674,0Z" transform="translate(4.209 43.018)" fill="#fff"/>
    <path id="패스_4" data-name="패스 4" d="M727.259,301.444a25.4,25.4,0,0,0,49.675,0Z" transform="translate(16.565 43.018)" fill="#fff"/>
    <path id="패스_5" data-name="패스 5" d="M883.66,301.444a25.4,25.4,0,0,0,49.674,0Z" transform="translate(62.984 43.018)" fill="#fff"/>
    <path id="패스_6" data-name="패스 6" d="M925.294,301.444a25.4,25.4,0,0,0,49.674,0Z" transform="translate(75.34 43.018)" fill="#fff"/>
    <path id="패스_7" data-name="패스 7" d="M1058.657,168.436h-51.392v-8.273a3.661,3.661,0,0,0-3.662-3.662H926.877a3.661,3.661,0,0,0-3.662,3.662v8.273H812.074v-8.273a3.662,3.662,0,0,0-3.662-3.662H731.685a3.662,3.662,0,0,0-3.662,3.662v8.273H681.435a9.99,9.99,0,0,0-9.991,9.989V340.572H735.42V212.093a2.352,2.352,0,0,1,2.354-2.352h59.075a2.353,2.353,0,0,1,2.354,2.352V340.572h24.4V354.5l-31.123,32.564H938.872L907.749,354.5V340.572H940.7V212.093a2.353,2.353,0,0,1,2.354-2.352h59.075a2.352,2.352,0,0,1,2.354,2.352V340.572h64.168V178.425A9.99,9.99,0,0,0,1058.657,168.436ZM725.717,315.309H674.134V284.858h51.584Zm0-55.858a2.833,2.833,0,0,1-2.833,2.833H689.263a2.833,2.833,0,0,1-2.833-2.833V225.83A2.833,2.833,0,0,1,689.263,223h33.621a2.833,2.833,0,0,1,2.833,2.833Zm207.2,55.858H802.276V284.858h130.64ZM814.764,259.451V225.83A2.833,2.833,0,0,1,817.6,223H923.934a2.833,2.833,0,0,1,2.833,2.833v33.621a2.833,2.833,0,0,1-2.833,2.833H817.6A2.833,2.833,0,0,1,814.764,259.451Zm249.08,55.858H1012.26V284.858h51.584Zm-49.278-55.858V225.83A2.833,2.833,0,0,1,1017.4,223h33.621a2.833,2.833,0,0,1,2.833,2.833v33.621a2.833,2.833,0,0,1-2.833,2.833H1017.4A2.833,2.833,0,0,1,1014.566,259.451Zm49.278-57.3H674.615V187.744h389.229Z" fill="#fff"/>
  </g>
</svg>
