<svg xmlns="http://www.w3.org/2000/svg" width="126.292" height="36.677" viewBox="0 0 126.292 36.677">
  <g id="그룹_380" data-name="그룹 380" transform="translate(-217.899 -238.672)">
    <path id="패스_1" data-name="패스 1" d="M227.124,255.97l.526-1.452c1.42-4.044,4.13-8.049,10.044-8.049H252.44l-1.32,3.6H239.448c-2.4,0-3.686,1.332-4.874,3.7h22.607c-1.654-8.581-9.751-15.1-19.488-15.1-10.932,0-19.795,8.21-19.795,18.338q0,.5.028.988l30.339,0-.526,1.452c-1.422,4.044-4.135,8.049-10.046,8.049H222.95l1.314-3.6h11.675c2.4,0,3.686-1.329,4.875-3.7H218.2c1.63,8.607,9.738,15.149,19.5,15.149,10.931,0,19.8-8.21,19.8-18.339,0-.35-.011-.7-.032-1.042Z" transform="translate(0 0)" fill="#fff"/>
    <g id="그룹_1" data-name="그룹 1" transform="translate(264.922 245.03)">
      <path id="패스_2" data-name="패스 2" d="M396.336,265.8H394.4v1.325h1.938v7.6h1.926v-12.17h-1.926Z" transform="translate(-386.531 -261.49)" fill="#fff"/>
      <path id="패스_3" data-name="패스 3" d="M375.156,264.022a1.727,1.727,0,0,0-1.658-1.461h-1.887L369.1,272.1h1.924l2.157-8.206h.016l2.161,8.206h1.921l-.486-1.839Z" transform="translate(-369.102 -261.49)" fill="#fff"/>
      <path id="패스_4" data-name="패스 4" d="M615.441,265.8H613.5v-3.241h-1.923v12.17H613.5v-7.6h1.937Z" transform="translate(-536.172 -261.49)" fill="#fff"/>
      <path id="패스_5" data-name="패스 5" d="M463.753,278.458h-1.922v4.983h-1.456v-4.983h-1.922v4.983h-2.068v1.327h11.488v-1.327h-4.12Z" transform="translate(-429.241 -272.443)" fill="#fff"/>
      <path id="패스_6" data-name="패스 6" d="M505.387,267.689h3.855v-1.327H502.2c-.337,0-.48-.242-.518-.571h7.558v-1.329h-7.569v-.572h7.569v-1.328h-9.492v3.313a1.758,1.758,0,0,0,1.692,1.815h2.025v.773h-4.947v1.326h11.816v-1.326h-4.948Z" transform="translate(-458.271 -261.49)" fill="#fff"/>
      <path id="패스_7" data-name="패스 7" d="M507.609,286.918c-2.727,0-4.472,1.269-4.472,2.833s1.744,2.835,4.472,2.835,4.474-1.271,4.474-2.835S510.337,286.918,507.609,286.918Zm0,4.34c-1.554,0-2.549-.672-2.549-1.506s.995-1.5,2.549-1.5,2.551.673,2.551,1.5S509.165,291.258,507.609,291.258Z" transform="translate(-461.453 -278.272)" fill="#fff"/>
      <path id="패스_8" data-name="패스 8" d="M546.955,273.952h-1.919v2.358h-3.919v1.326H552.4V276.31h-5.445Z" transform="translate(-487.621 -269.339)" fill="#fff"/>
      <path id="패스_9" data-name="패스 9" d="M549.346,286.918c-2.73,0-4.473,1.269-4.473,2.833s1.743,2.835,4.473,2.835,4.472-1.271,4.472-2.835S552.073,286.918,549.346,286.918Zm0,4.34c-1.559,0-2.552-.672-2.552-1.506s.994-1.5,2.552-1.5,2.549.673,2.549,1.5S550.9,291.258,549.346,291.258Z" transform="translate(-490.21 -278.272)" fill="#fff"/>
      <path id="패스_10" data-name="패스 10" d="M414,279.784h4.889v.774h-4.066v1.325h8.133v.575h-8.133v1.409a1.759,1.759,0,0,0,1.693,1.816h8.36v-1.327h-7.647c-.338,0-.449-.244-.475-.572h8.122v-3.226h-4.062v-.774H425.7v-1.326H414Z" transform="translate(-400.037 -272.443)" fill="#fff"/>
      <path id="패스_11" data-name="패스 11" d="M422.906,264.785c2.729,0,4.474-1.27,4.474-2.834s-1.745-2.834-4.474-2.834-4.471,1.268-4.471,2.834S420.179,264.785,422.906,264.785Zm0-4.341c1.556,0,2.553.675,2.553,1.507s-1,1.507-2.553,1.507-2.549-.675-2.549-1.507S421.35,260.444,422.906,260.444Z" transform="translate(-403.093 -259.117)" fill="#fff"/>
      <path id="패스_12" data-name="패스 12" d="M466.521,263.931a.745.745,0,0,1,.719.771v6.414h1.922v-6.7a1.756,1.756,0,0,0-1.692-1.814h-8.16v1.324Z" transform="translate(-431.256 -261.521)" fill="#fff"/>
      <path id="패스_13" data-name="패스 13" d="M550.768,263.889a.743.743,0,0,1,.721.767v3.177h1.918v-3.457a1.758,1.758,0,0,0-1.69-1.816h-7.949v1.328Z" transform="translate(-489.448 -261.49)" fill="#fff"/>
      <path id="패스_14" data-name="패스 14" d="M586.231,262.561h-1.89l-2.507,9.534h1.922l2.157-8.206h.019l2.157,8.206h1.922l-2.123-8.066A1.73,1.73,0,0,0,586.231,262.561Z" transform="translate(-515.676 -261.49)" fill="#fff"/>
      <path id="패스_15" data-name="패스 15" d="M403.292,316.4c-.11-.058-.218-.115-.33-.18l-.773-.361-.212-.114c-.524-.281-.847-.473-.847-.878,0-.712.763-.788,1.085-.788a4.949,4.949,0,0,1,1.924.454l.187.1V313.2l-.238-.063a6.977,6.977,0,0,0-1.794-.31c-1.652,0-2.636.8-2.636,2.126,0,1.186,1.281,1.809,2.219,2.264l.405.2c.535.258,1.041.5,1.041,1.162,0,.849-.88.975-1.4.975a4.75,4.75,0,0,1-1.871-.393l-.144-.057-.173-.064v1.4l.16.041a8.047,8.047,0,0,0,1.924.32c1.93,0,2.991-.828,2.991-2.338A2.254,2.254,0,0,0,403.292,316.4Z" transform="translate(-390.156 -296.124)" fill="#fff"/>
      <path id="패스_16" data-name="패스 16" d="M421.532,320.022a2.534,2.534,0,0,0-2.719,2.742,2.954,2.954,0,0,0,1.081,2.38,3.587,3.587,0,0,0,2.1.6,3.374,3.374,0,0,0,1.693-.406l.063-.036v-1.139l-.191.113a3.037,3.037,0,0,1-1.249.347c-1.15,0-1.84-.439-2.051-1.308h3.658v-.807A2.321,2.321,0,0,0,421.532,320.022Zm-.03,1.152a1.017,1.017,0,0,1,1.043,1h-2.319A1.2,1.2,0,0,1,421.5,321.174Z" transform="translate(-403.353 -301.081)" fill="#fff"/>
      <path id="패스_17" data-name="패스 17" d="M440.983,320.06a2.615,2.615,0,0,0-2.7,2.876,2.724,2.724,0,1,0,2.7-2.876Zm-.009,1.15c1.219,0,1.35,1.2,1.35,1.715s-.128,1.694-1.31,1.694c-1.263,0-1.361-1.289-1.361-1.683S439.749,321.21,440.974,321.21Z" transform="translate(-416.769 -301.107)" fill="#fff"/>
      <path id="패스_18" data-name="패스 18" d="M462.5,322.712a4.473,4.473,0,0,1-.08.706c-.116.513-.444,1.37-1.3,1.37-.665,0-.756-.485-.756-1.007v-3.387h-1.307v3.761a1.8,1.8,0,0,0,1.814,1.835,1.765,1.765,0,0,0,1.652-.836v.722H463.8v-5.482H462.5Z" transform="translate(-431.078 -301.337)" fill="#fff"/>
      <rect id="사각형_2" data-name="사각형 2" width="1.359" height="7.741" transform="translate(34.122 16.829)" fill="#fff"/>
      <path id="패스_19" data-name="패스 19" d="M501.839,319.04l-1.918-5.81h-1.791v7.73h1.316V315.7l1.76,5.256h1.235l1.758-5.229v5.229h1.318v-7.73h-1.783Z" transform="translate(-458.004 -296.401)" fill="#fff"/>
      <path id="패스_20" data-name="패스 20" d="M528.149,320.022a2.534,2.534,0,0,0-2.719,2.742,2.96,2.96,0,0,0,1.08,2.38,3.591,3.591,0,0,0,2.1.6,3.374,3.374,0,0,0,1.693-.406l.063-.036v-1.139l-.193.113a3.029,3.029,0,0,1-1.245.347c-1.151,0-1.839-.439-2.051-1.308h3.656v-.807A2.32,2.32,0,0,0,528.149,320.022Zm-.031,1.152a1.015,1.015,0,0,1,1.042,1h-2.317A1.2,1.2,0,0,1,528.118,321.174Z" transform="translate(-476.813 -301.081)" fill="#fff"/>
      <path id="패스_21" data-name="패스 21" d="M546.728,314.418l-1.358.82V316.3h-.9v1.16h.9v2.788c0,1.1.6,1.657,1.792,1.657a6.486,6.486,0,0,0,.912-.061l.111-.015v-1.275l-.165.052a2.121,2.121,0,0,1-.7.119c-.549,0-.59-.349-.59-.882v-2.383h1.489V316.3h-1.489Z" transform="translate(-489.935 -297.22)" fill="#fff"/>
      <path id="패스_22" data-name="패스 22" d="M562.684,320.522a1.522,1.522,0,0,0-.415.45v-.765h-1.346V325.7h1.346v-2.264a4.913,4.913,0,0,1,.112-.863c.232-.945,1.192-1.142,1.959-1.142h.127v-1.338h-.127A2.482,2.482,0,0,0,562.684,320.522Z" transform="translate(-501.268 -301.13)" fill="#fff"/>
      <path id="패스_23" data-name="패스 23" d="M576.71,320.06a2.614,2.614,0,0,0-2.7,2.876,2.723,2.723,0,1,0,2.7-2.876Zm-.01,1.15c1.219,0,1.352,1.2,1.352,1.715s-.128,1.694-1.311,1.694c-1.262,0-1.361-1.289-1.361-1.683S575.475,321.21,576.7,321.21Z" transform="translate(-510.287 -301.107)" fill="#fff"/>
    </g>
  </g>
</svg>
