<svg xmlns="http://www.w3.org/2000/svg" xmlns:xlink="http://www.w3.org/1999/xlink" width="1879" height="56" viewBox="0 0 1879 56">
  <defs>
    <clipPath id="clip-path">
      <rect id="사각형_283" data-name="사각형 283" width="1879" height="56" transform="translate(3651 -1738)" fill="none" stroke="#707070" stroke-width="0.1"/>
    </clipPath>
    <linearGradient id="linear-gradient" x1="0.5" x2="0.5" y2="1" gradientUnits="objectBoundingBox">
      <stop offset="0" stop-color="#004b77"/>
      <stop offset="1" stop-color="#0094b2"/>
    </linearGradient>
  </defs>
  <g id="마스크_그룹_8" data-name="마스크 그룹 8" transform="translate(-3651 1738)" clip-path="url(#clip-path)">
    <path id="패스_2349" data-name="패스 2349" d="M-877.341-317.276l-824.334.026-11.084,32.165c-4.468,8.276-5.793,9.766-20.669,10.542h-202.591c-13.138.064-20.4,1.21-25.867-11.325l-10.773-31.376h-782.453s0,12.962,0,28.651v668H-877.346C-877.343-355.447-877.341-317.276-877.341-317.276Z" transform="translate(6407.111 -1420.677)" fill="rgba(4,17,29,0.55)"/>
    <g id="패스_2348" data-name="패스 2348" transform="translate(6909.698 -1420.865)" fill="url(#linear-gradient)">
      <path d="M -2232.3671875 -280.794677734375 L -2447.0302734375 -280.794677734375 C -2449.40966796875 -280.794677734375 -2451.71337890625 -281.635498046875 -2453.692626953125 -283.2262573242188 C -2455.6875 -284.8296508789062 -2457.22119140625 -287.0876159667969 -2458.128173828125 -289.756103515625 L -2467.303955078125 -316.7630004882812 L -2212.092529296875 -316.7630004882812 L -2221.268798828125 -289.756103515625 C -2222.17578125 -287.0874938964844 -2223.70947265625 -284.8295288085938 -2225.7041015625 -283.2262573242188 C -2227.683349609375 -281.635498046875 -2229.9873046875 -280.794677734375 -2232.3671875 -280.794677734375 Z" stroke="none"/>
      <path d="M -2232.3671875 -281.294677734375 C -2230.1025390625 -281.294677734375 -2227.90673828125 -282.0973815917969 -2226.017333984375 -283.615966796875 C -2224.0966796875 -285.1596374511719 -2222.618408203125 -287.3385009765625 -2221.7421875 -289.9169311523438 L -2212.79052734375 -316.2630004882812 L -2466.60595703125 -316.2630004882812 L -2457.65478515625 -289.9169921875 C -2456.778564453125 -287.3385620117188 -2455.300048828125 -285.1597290039062 -2453.37939453125 -283.615966796875 C -2451.489990234375 -282.0973815917969 -2449.29443359375 -281.294677734375 -2447.0302734375 -281.294677734375 L -2232.3671875 -281.294677734375 M -2232.3671875 -280.294677734375 L -2447.0302734375 -280.294677734375 C -2452.1142578125 -280.294677734375 -2456.69091796875 -283.9728088378906 -2458.6015625 -289.5952453613281 L -2468.001953125 -317.2630004882812 L -2211.39453125 -317.2630004882812 L -2220.79541015625 -289.5952453613281 C -2222.7060546875 -283.9728088378906 -2227.2822265625 -280.294677734375 -2232.3671875 -280.294677734375 Z" stroke="none" fill="#09ccff"/>
    </g>
  </g>
</svg>
