<svg xmlns="http://www.w3.org/2000/svg" xmlns:xlink="http://www.w3.org/1999/xlink" width="2020.832" height="85.449" viewBox="0 0 2020.832 85.449">
  <defs>
    <clipPath id="clip-path">
      <path id="패스_46" data-name="패스 46" d="M-36.883,0H435.388l13.357,13.158V41.312L435.774,53.27H-36.567L-50,40.611V13.537Z" fill="#fff" opacity="0.66"/>
    </clipPath>
    <linearGradient id="linear-gradient" x1="0.054" y1="0.588" x2="0.964" y2="0.603" gradientUnits="objectBoundingBox">
      <stop offset="0" stop-color="#30eaff" stop-opacity="0.11"/>
      <stop offset="0.502" stop-color="#02acd8" stop-opacity="0.522"/>
      <stop offset="1" stop-color="#3eeafe" stop-opacity="0.078"/>
    </linearGradient>
    <linearGradient id="linear-gradient-2" x1="0.5" x2="0.5" y2="1" gradientUnits="objectBoundingBox">
      <stop offset="0" stop-color="#0091c7"/>
      <stop offset="0.682" stop-color="#00aedb"/>
      <stop offset="1" stop-color="#08476c"/>
    </linearGradient>
    <filter id="패스_54" x="748.382" y="46.88" width="517.017" height="38.569" filterUnits="userSpaceOnUse">
      <feOffset dy="3" input="SourceAlpha"/>
      <feGaussianBlur stdDeviation="3" result="blur"/>
      <feFlood flood-opacity="0.322"/>
      <feComposite operator="in" in2="blur"/>
      <feComposite in="SourceGraphic"/>
    </filter>
    <linearGradient id="linear-gradient-3" x1="0.5" x2="0.5" y2="1" gradientUnits="objectBoundingBox">
      <stop offset="0" stop-color="#0fc7f6"/>
      <stop offset="0.51" stop-color="#00546e"/>
      <stop offset="1" stop-color="#005994"/>
    </linearGradient>
    <filter id="패스_55" x="748.382" y="0" width="517.017" height="38.569" filterUnits="userSpaceOnUse">
      <feOffset dy="3" input="SourceAlpha"/>
      <feGaussianBlur stdDeviation="3" result="blur-2"/>
      <feFlood flood-opacity="0.278"/>
      <feComposite operator="in" in2="blur-2"/>
      <feComposite in="SourceGraphic"/>
    </filter>
  </defs>
  <g id="그룹_381" data-name="그룹 381" transform="translate(210.416 -28.705)">
    <g id="그룹_381-2" data-name="그룹 381" transform="translate(-160 49.037)">
      <path id="패스_2346" data-name="패스 2346" d="M-10,0H592.383L576.715,38.386H-10Z" transform="translate(-40)" fill="#002a46"/>
      <path id="패스_2358" data-name="패스 2358" d="M-163,0H439.3" transform="translate(113.084 0.392)" fill="none" stroke="#00557b" stroke-linecap="round" stroke-width="1"/>
      <path id="패스_2359" data-name="패스 2359" d="M-163,0H424.023" transform="translate(113.084 37.994)" fill="none" stroke="#00557b" stroke-linecap="round" stroke-width="1"/>
    </g>
    <g id="그룹_382" data-name="그룹 382" transform="translate(1207.617 49.037)">
      <path id="패스_2346-2" data-name="패스 2346" d="M752.383,0H150l15.668,38.386H752.383Z" transform="translate(-150)" fill="#002a46"/>
      <path id="패스_2360" data-name="패스 2360" d="M602.3,0H0" transform="translate(0 0.392)" fill="none" stroke="#00557b" stroke-linecap="round" stroke-width="1"/>
      <path id="패스_2361" data-name="패스 2361" d="M587.023,0H0" transform="translate(15.276 37.994)" fill="none" stroke="#00557b" stroke-linecap="round" stroke-width="1"/>
    </g>
    <g id="그룹_383" data-name="그룹 383" transform="translate(438.466 34.705)">
      <g id="마스크_그룹_1" data-name="마스크 그룹 1" transform="translate(158.244 6.873)" opacity="0.56" clip-path="url(#clip-path)">
        <g id="사각형_47" data-name="사각형 47" transform="translate(-82.502 -38.852)" stroke="#707070" stroke-width="1" fill="url(#linear-gradient)">
          <rect width="555.131" height="123.14" stroke="none"/>
          <rect x="0.5" y="0.5" width="554.131" height="122.14" fill="none"/>
        </g>
        <g id="그룹_88" data-name="그룹 88" transform="translate(-9.082 -147.742)">
          <g id="그룹_87" data-name="그룹 87" transform="translate(-38.363 -38.364)" opacity="0.42">
            <g id="그룹_45" data-name="그룹 45" transform="translate(0 0.395)">
              <rect id="사각형_5" data-name="사각형 5" width="0.791" height="493.969" fill="#c2f8ff"/>
            </g>
            <g id="그룹_46" data-name="그룹 46" transform="translate(493.967 0.395)">
              <rect id="사각형_6" data-name="사각형 6" width="0.791" height="493.969" fill="#c2f8ff"/>
            </g>
            <g id="그룹_47" data-name="그룹 47" transform="translate(469.269 0.395)">
              <rect id="사각형_7" data-name="사각형 7" width="0.791" height="493.969" fill="#c2f8ff"/>
            </g>
            <g id="그룹_48" data-name="그룹 48" transform="translate(444.57 0.395)">
              <rect id="사각형_8" data-name="사각형 8" width="0.791" height="493.969" fill="#c2f8ff"/>
            </g>
            <g id="그룹_49" data-name="그룹 49" transform="translate(419.872 0.395)">
              <rect id="사각형_9" data-name="사각형 9" width="0.791" height="493.969" fill="#c2f8ff"/>
            </g>
            <g id="그룹_50" data-name="그룹 50" transform="translate(395.174 0.395)">
              <rect id="사각형_10" data-name="사각형 10" width="0.791" height="493.969" fill="#c2f8ff"/>
            </g>
            <g id="그룹_51" data-name="그룹 51" transform="translate(370.476 0.395)">
              <rect id="사각형_11" data-name="사각형 11" width="0.791" height="493.969" fill="#c2f8ff"/>
            </g>
            <g id="그룹_52" data-name="그룹 52" transform="translate(345.777 0.395)">
              <rect id="사각형_12" data-name="사각형 12" width="0.791" height="493.969" fill="#c2f8ff"/>
            </g>
            <g id="그룹_53" data-name="그룹 53" transform="translate(321.079 0.395)">
              <rect id="사각형_13" data-name="사각형 13" width="0.791" height="493.969" fill="#c2f8ff"/>
            </g>
            <g id="그룹_54" data-name="그룹 54" transform="translate(296.38 0.395)">
              <rect id="사각형_14" data-name="사각형 14" width="0.791" height="493.969" fill="#c2f8ff"/>
            </g>
            <g id="그룹_55" data-name="그룹 55" transform="translate(271.682 0.395)">
              <rect id="사각형_15" data-name="사각형 15" width="0.791" height="493.969" fill="#c2f8ff"/>
            </g>
            <g id="그룹_56" data-name="그룹 56" transform="translate(246.984 0.395)">
              <rect id="사각형_16" data-name="사각형 16" width="0.791" height="493.969" fill="#c2f8ff"/>
            </g>
            <g id="그룹_57" data-name="그룹 57" transform="translate(222.285 0.395)">
              <rect id="사각형_17" data-name="사각형 17" width="0.791" height="493.969" transform="translate(0)" fill="#c2f8ff"/>
            </g>
            <g id="그룹_58" data-name="그룹 58" transform="translate(197.587 0.395)">
              <rect id="사각형_18" data-name="사각형 18" width="0.791" height="493.969" fill="#c2f8ff"/>
            </g>
            <g id="그룹_59" data-name="그룹 59" transform="translate(172.889 0.395)">
              <rect id="사각형_19" data-name="사각형 19" width="0.791" height="493.969" fill="#c2f8ff"/>
            </g>
            <g id="그룹_60" data-name="그룹 60" transform="translate(148.19 0.395)">
              <rect id="사각형_20" data-name="사각형 20" width="0.791" height="493.969" fill="#c2f8ff"/>
            </g>
            <g id="그룹_61" data-name="그룹 61" transform="translate(123.492 0.395)">
              <rect id="사각형_21" data-name="사각형 21" width="0.791" height="493.969" fill="#c2f8ff"/>
            </g>
            <g id="그룹_62" data-name="그룹 62" transform="translate(98.794 0.395)">
              <rect id="사각형_22" data-name="사각형 22" width="0.791" height="493.969" fill="#c2f8ff"/>
            </g>
            <g id="그룹_63" data-name="그룹 63" transform="translate(74.095 0.395)">
              <rect id="사각형_23" data-name="사각형 23" width="0.791" height="493.969" fill="#c2f8ff"/>
            </g>
            <g id="그룹_64" data-name="그룹 64" transform="translate(49.397 0.395)">
              <rect id="사각형_24" data-name="사각형 24" width="0.791" height="493.969" fill="#c2f8ff"/>
            </g>
            <g id="그룹_65" data-name="그룹 65" transform="translate(24.698 0.395)">
              <rect id="사각형_25" data-name="사각형 25" width="0.791" height="493.969" fill="#c2f8ff"/>
            </g>
            <g id="그룹_66" data-name="그룹 66" transform="translate(0.395)">
              <rect id="사각형_26" data-name="사각형 26" width="493.967" height="0.791" fill="#c2f8ff"/>
            </g>
            <g id="그룹_67" data-name="그룹 67" transform="translate(0.395 493.969)">
              <rect id="사각형_27" data-name="사각형 27" width="493.967" height="0.791" fill="#c2f8ff"/>
            </g>
            <g id="그룹_68" data-name="그룹 68" transform="translate(0.395 469.27)">
              <rect id="사각형_28" data-name="사각형 28" width="493.967" height="0.791" fill="#c2f8ff"/>
            </g>
            <g id="그룹_69" data-name="그룹 69" transform="translate(0.395 444.572)">
              <rect id="사각형_29" data-name="사각형 29" width="493.967" height="0.791" fill="#c2f8ff"/>
            </g>
            <g id="그룹_70" data-name="그룹 70" transform="translate(0.395 419.873)">
              <rect id="사각형_30" data-name="사각형 30" width="493.967" height="0.791" fill="#c2f8ff"/>
            </g>
            <g id="그룹_71" data-name="그룹 71" transform="translate(0.395 395.175)">
              <rect id="사각형_31" data-name="사각형 31" width="493.967" height="0.791" fill="#c2f8ff"/>
            </g>
            <g id="그룹_72" data-name="그룹 72" transform="translate(0.395 370.477)">
              <rect id="사각형_32" data-name="사각형 32" width="493.967" height="0.791" fill="#c2f8ff"/>
            </g>
            <g id="그룹_73" data-name="그룹 73" transform="translate(0.395 345.778)">
              <rect id="사각형_33" data-name="사각형 33" width="493.967" height="0.791" fill="#c2f8ff"/>
            </g>
            <g id="그룹_74" data-name="그룹 74" transform="translate(0.395 321.08)">
              <rect id="사각형_34" data-name="사각형 34" width="493.967" height="0.791" fill="#c2f8ff"/>
            </g>
            <g id="그룹_75" data-name="그룹 75" transform="translate(0.395 296.382)">
              <rect id="사각형_35" data-name="사각형 35" width="493.967" height="0.791" fill="#c2f8ff"/>
            </g>
            <g id="그룹_76" data-name="그룹 76" transform="translate(0.395 271.684)">
              <rect id="사각형_36" data-name="사각형 36" width="493.967" height="0.791" fill="#c2f8ff"/>
            </g>
            <g id="그룹_77" data-name="그룹 77" transform="translate(0.395 246.985)">
              <rect id="사각형_37" data-name="사각형 37" width="493.967" height="0.791" fill="#c2f8ff"/>
            </g>
            <g id="그룹_78" data-name="그룹 78" transform="translate(0.395 222.287)">
              <rect id="사각형_38" data-name="사각형 38" width="493.967" height="0.791" fill="#c2f8ff"/>
            </g>
            <g id="그룹_79" data-name="그룹 79" transform="translate(0.395 197.588)">
              <rect id="사각형_39" data-name="사각형 39" width="493.967" height="0.791" fill="#c2f8ff"/>
            </g>
            <g id="그룹_80" data-name="그룹 80" transform="translate(0.395 172.89)">
              <rect id="사각형_40" data-name="사각형 40" width="493.967" height="0.791" fill="#c2f8ff"/>
            </g>
            <g id="그룹_81" data-name="그룹 81" transform="translate(0.395 148.191)">
              <rect id="사각형_41" data-name="사각형 41" width="493.967" height="0.791" fill="#c2f8ff"/>
            </g>
            <g id="그룹_82" data-name="그룹 82" transform="translate(0.395 123.493)">
              <rect id="사각형_42" data-name="사각형 42" width="493.967" height="0.791" fill="#c2f8ff"/>
            </g>
            <g id="그룹_83" data-name="그룹 83" transform="translate(0.395 98.795)">
              <rect id="사각형_43" data-name="사각형 43" width="493.967" height="0.791" fill="#c2f8ff"/>
            </g>
            <g id="그룹_84" data-name="그룹 84" transform="translate(0.395 74.097)">
              <rect id="사각형_44" data-name="사각형 44" width="493.967" height="0.791" fill="#c2f8ff"/>
            </g>
            <g id="그룹_85" data-name="그룹 85" transform="translate(0.395 49.398)">
              <rect id="사각형_45" data-name="사각형 45" width="493.967" height="0.791" fill="#c2f8ff"/>
            </g>
            <g id="그룹_86" data-name="그룹 86" transform="translate(0.395 24.7)">
              <rect id="사각형_46" data-name="사각형 46" width="493.967" height="0.791" fill="#c2f8ff"/>
            </g>
          </g>
        </g>
      </g>
      <g id="그룹_89" data-name="그룹 89" transform="translate(158.5 0)">
        <g transform="matrix(1, 0, 0, 1, -807.38, -6)" filter="url(#패스_54)">
          <path id="패스_54-2" data-name="패스 54" d="M-109.055,421.1a.974.974,0,0,0-1.377,0l-12.19,12.189H-593.89l-12.243-12.238a.968.968,0,0,0-1.369,0,.969.969,0,0,0,0,1.369l12.526,12.526a.955.955,0,0,0,.687.283h162.73l6.1,6.107h134.347l6.113-6.107h162.778a.952.952,0,0,0,.687-.283l12.477-12.472A.973.973,0,0,0-109.055,421.1Z" transform="translate(1365.17 -367.89)" fill="url(#linear-gradient-2)"/>
        </g>
        <g transform="matrix(1, 0, 0, 1, -807.38, -6)" filter="url(#패스_55)">
          <path id="패스_55-2" data-name="패스 55" d="M-109.055,441.006a.974.974,0,0,1-1.377,0l-12.19-12.189H-593.89l-12.243,12.238a.968.968,0,0,1-1.369,0,.969.969,0,0,1,0-1.369l12.526-12.526a.955.955,0,0,1,.687-.283h162.73l6.1-6.107h134.347l6.113,6.107h162.778a.952.952,0,0,1,.687.283l12.477,12.472A.973.973,0,0,1-109.055,441.006Z" transform="translate(1365.17 -414.77)" fill="url(#linear-gradient-3)"/>
        </g>
      </g>
      <path id="패스_45" data-name="패스 45" d="M5246,67.552" transform="translate(-5087.755 -47.712)" fill="none" stroke="#707070" stroke-width="1"/>
      <g id="그룹_93" data-name="그룹 93" transform="translate(0 14.912)" opacity="0.5">
        <g id="그룹_90" data-name="그룹 90" transform="translate(-50)">
          <path id="패스_47" data-name="패스 47" d="M35.086,64.211H22.545L38.113,26.589h12.54Z" transform="translate(-22.545 -26.589)" fill="none" stroke="#00c3eb" stroke-miterlimit="10" stroke-width="1"/>
          <path id="패스_48" data-name="패스 48" d="M49.669,64.211H37.128L52.7,26.589h12.54Z" transform="translate(-18.534 -26.589)" fill="none" stroke="#00c3eb" stroke-miterlimit="10" stroke-width="1"/>
          <path id="패스_49" data-name="패스 49" d="M64.251,64.211H51.711L67.278,26.589h12.54Z" transform="translate(-14.522 -26.589)" fill="none" stroke="#00c3eb" stroke-miterlimit="10" stroke-width="1"/>
          <path id="패스_50" data-name="패스 50" d="M78.834,64.211H66.294L81.861,26.589H94.4Z" transform="translate(-10.51 -26.589)" fill="#00b3eb" opacity="0.5"/>
          <path id="패스_51" data-name="패스 51" d="M93.417,64.211H80.876L96.444,26.589h12.54Z" transform="translate(-6.499 -26.589)" fill="#00c3eb" opacity="0.5"/>
          <path id="패스_52" data-name="패스 52" d="M108,64.211H95.459l15.567-37.621h12.54Z" transform="translate(-2.487 -26.589)" fill="#00c2ff"/>
          <path id="패스_53" data-name="패스 53" d="M122.582,64.211h-12.54l15.567-37.621h12.54Z" transform="translate(1.525 -26.589)" fill="#00c2ff"/>
        </g>
        <g id="그룹_333" data-name="그룹 333" transform="translate(625.602)">
          <path id="패스_47-2" data-name="패스 47" d="M38.113,64.211h12.54L35.086,26.589H22.545Z" transform="translate(89.021 -26.589)" fill="none" stroke="#00c3eb" stroke-miterlimit="10" stroke-width="1"/>
          <path id="패스_48-2" data-name="패스 48" d="M52.7,64.211h12.54L49.669,26.589H37.128Z" transform="translate(55.844 -26.589)" fill="none" stroke="#00c3eb" stroke-miterlimit="10" stroke-width="1"/>
          <path id="패스_49-2" data-name="패스 49" d="M67.278,64.211h12.54L64.251,26.589H51.711Z" transform="translate(22.667 -26.589)" fill="none" stroke="#00c3eb" stroke-miterlimit="10" stroke-width="1"/>
          <path id="패스_50-2" data-name="패스 50" d="M81.861,64.211H94.4L78.834,26.589H66.294Z" transform="translate(-10.51 -26.589)" fill="#00b3eb" opacity="0.5"/>
          <path id="패스_51-2" data-name="패스 51" d="M96.444,64.211h12.54L93.417,26.589H80.876Z" transform="translate(-43.687 -26.589)" fill="#00c3eb" opacity="0.5"/>
          <path id="패스_52-2" data-name="패스 52" d="M111.026,64.211h12.54L108,26.589H95.459Z" transform="translate(-76.865 -26.589)" fill="#00c2ff"/>
          <path id="패스_53-2" data-name="패스 53" d="M125.609,64.211h12.54L122.582,26.589H110.042Z" transform="translate(-110.042 -26.589)" fill="#00c2ff"/>
        </g>
      </g>
    </g>
  </g>
</svg>
